<svg width="286.676" height="70.289" fill="none" xmlns="http://www.w3.org/2000/svg"><path d="M74.85 66.2q8.33 4.08 18.67 4.08 10.4 0 18.75-4.13.37-.18.72-.37 5.48-2.86 9.46-7.13 2.3-2.47 4.09-5.4 1.32-2.18 2.29-4.5 2.61-6.27 2.61-13.62 0-7.42-2.65-13.72-.96-2.26-2.25-4.38-1.82-2.97-4.15-5.46-3.96-4.22-9.4-7.05-.42-.23-.85-.44Q103.83 0 93.52 0 83.27 0 74.99 4.03q-.49.24-.97.49-5.37 2.8-9.29 6.95-2.38 2.53-4.24 5.56-1.29 2.12-2.24 4.38-2.65 6.3-2.65 13.72 0 7.35 2.61 13.62.96 2.32 2.28 4.5 1.83 2.99 4.18 5.49 3.94 4.21 9.35 7.04.41.22.83.42zm128.97-32.88h-19.68v17q-1.63.66-3.32 1.06-2.4.55-4.93.55-5.3 0-9.04-2.41-1.43-.91-2.64-2.18-.82-.87-1.49-1.85-2.86-4.2-2.86-10.36 0-6.53 3.12-10.75.58-.8 1.28-1.51 1-1.03 2.17-1.82 3.94-2.7 9.74-2.7 3.06 0 5.82.9 5.13 1.68 9.25 6.48l14.51-12.77q-1.78-2.16-3.86-3.97-4.02-3.49-9.18-5.67Q184.91 0 175.02 0q-10.74 0-19.31 4.3-.17.09-.33.17-5.56 2.85-9.55 7.15-2.25 2.43-4 5.32-1.04 1.73-1.86 3.56Q137 27.15 137 35.13q0 8.07 3.03 14.78.8 1.76 1.8 3.43 1.92 3.18 4.43 5.8 3.81 3.99 8.98 6.69.41.22.83.42 8.24 4.03 18.46 4.03 7.59 0 15.47-2.2 7.87-2.23 13.82-6.35V33.32zm26.26 32.88q8.34 4.08 18.67 4.08 10.4 0 18.76-4.13.36-.18.72-.37 5.48-2.86 9.45-7.13 2.3-2.47 4.09-5.4 1.33-2.18 2.29-4.5 2.61-6.27 2.61-13.62 0-7.42-2.65-13.72-.95-2.26-2.25-4.38-1.82-2.97-4.15-5.46-3.96-4.22-9.39-7.05-.43-.23-.86-.44Q259.06 0 248.75 0q-10.25 0-18.53 4.03-.49.24-.97.49-5.36 2.8-9.29 6.95-2.38 2.53-4.23 5.56-1.3 2.12-2.25 4.38-2.65 6.3-2.65 13.72 0 7.35 2.61 13.62.96 2.32 2.29 4.5 1.82 2.99 4.17 5.49 3.94 4.21 9.35 7.04.41.22.83.42zM22.66 1.54H0v67.2h52.99V51.16H22.66V1.54zm76.38 49.37q-2.56 1.02-5.52 1.02-3.06 0-5.68-1.07-1.01-.41-1.96-.99-.78-.47-1.48-1.03-2.38-1.9-3.94-4.83-2.01-3.8-2.01-8.88 0-5.09 2.01-8.86 1.56-2.93 3.94-4.83.7-.56 1.48-1.03.95-.58 1.96-.99 2.62-1.07 5.68-1.07 2.96 0 5.52 1.01 1.08.44 2.09 1.05.85.51 1.61 1.13 2.32 1.87 3.83 4.73 2.02 3.77 2.02 8.86 0 5.08-2.02 8.88-1.51 2.86-3.83 4.73-.76.62-1.61 1.13-1.01.61-2.09 1.04zm155.23 0q-2.56 1.02-5.52 1.02-3.06 0-5.68-1.07-1.01-.41-1.96-.99-.78-.47-1.48-1.03-2.38-1.9-3.94-4.83-2.01-3.8-2.01-8.88 0-5.09 2.01-8.86 1.56-2.93 3.94-4.83.7-.56 1.48-1.03.95-.58 1.96-.99 2.62-1.07 5.68-1.07 2.96 0 5.52 1.01 1.09.44 2.1 1.05.84.51 1.61 1.13 2.31 1.87 3.82 4.73 2.02 3.77 2.02 8.86 0 5.08-2.02 8.88-1.51 2.86-3.82 4.73-.77.62-1.61 1.13-1.01.61-2.1 1.04z" fill="#FF7D01" fill-rule="evenodd"/></svg>