<svg width="145" height="36" fill="none" xmlns="http://www.w3.org/2000/svg"><path d="M.736 35V1.4h11.328v24.816h15.168V35H.736zm46.772.768c-2.72 0-5.248-.432-7.584-1.296-2.304-.864-4.304-2.08-6-3.648a17.443 17.443 0 0 1-3.984-5.616c-.928-2.144-1.392-4.48-1.392-7.008 0-2.56.464-4.896 1.392-7.008.96-2.144 2.288-4 3.984-5.568 1.696-1.6 3.696-2.832 6-3.696C42.26 1.064 44.788.632 47.508.632c2.752 0 5.28.432 7.584 1.296 2.304.864 4.304 2.096 6 3.696a16.33 16.33 0 0 1 3.936 5.568c.96 2.112 1.44 4.448 1.44 7.008 0 2.528-.48 4.864-1.44 7.008a16.834 16.834 0 0 1-3.936 5.616c-1.696 1.568-3.696 2.784-6 3.648-2.304.864-4.832 1.296-7.584 1.296zm0-9.168c1.056 0 2.032-.192 2.928-.576a6.948 6.948 0 0 0 2.4-1.632c.704-.736 1.248-1.616 1.632-2.64.384-1.056.576-2.24.576-3.552 0-1.312-.192-2.48-.576-3.504-.384-1.056-.928-1.936-1.632-2.64a6.655 6.655 0 0 0-2.4-1.68c-.896-.384-1.872-.576-2.928-.576a7.706 7.706 0 0 0-2.976.576 7.253 7.253 0 0 0-2.4 1.68c-.672.704-1.2 1.584-1.584 2.64-.384 1.024-.576 2.192-.576 3.504 0 1.312.192 2.496.576 3.552.384 1.024.912 1.904 1.584 2.64a7.606 7.606 0 0 0 2.4 1.632c.928.384 1.92.576 2.976.576zm40.496 9.168c-2.72 0-5.232-.416-7.536-1.248-2.272-.864-4.256-2.08-5.952-3.648a16.648 16.648 0 0 1-3.888-5.568c-.928-2.144-1.392-4.512-1.392-7.104 0-2.592.464-4.96 1.392-7.104.928-2.144 2.24-4 3.936-5.568 1.696-1.568 3.696-2.768 6-3.6C82.9 1.064 85.46.632 88.244.632c3.328 0 6.288.56 8.88 1.68 2.624 1.12 4.784 2.72 6.48 4.8l-7.248 6.384C95.3 12.28 94.148 11.368 92.9 10.76c-1.216-.64-2.576-.96-4.08-.96-1.248 0-2.384.192-3.408.576a6.932 6.932 0 0 0-2.544 1.68c-.704.736-1.248 1.616-1.632 2.64-.384 1.024-.576 2.192-.576 3.504 0 1.248.192 2.4.576 3.456.384 1.024.928 1.904 1.632 2.64a7.59 7.59 0 0 0 2.496 1.728c.992.384 2.096.576 3.312.576 1.28 0 2.528-.208 3.744-.624 1.216-.448 2.512-1.2 3.888-2.256l6.336 7.776c-2.048 1.376-4.384 2.432-7.008 3.168-2.624.736-5.168 1.104-7.632 1.104zm4.8-5.712V17.288h9.84v14.208l-9.84-1.44zm32.282 5.712c-2.72 0-5.248-.432-7.584-1.296-2.304-.864-4.304-2.08-6-3.648a17.443 17.443 0 0 1-3.984-5.616c-.928-2.144-1.392-4.48-1.392-7.008 0-2.56.464-4.896 1.392-7.008.96-2.144 2.288-4 3.984-5.568 1.696-1.6 3.696-2.832 6-3.696 2.336-.864 4.864-1.296 7.584-1.296 2.752 0 5.28.432 7.584 1.296 2.304.864 4.304 2.096 6 3.696a16.33 16.33 0 0 1 3.936 5.568c.96 2.112 1.44 4.448 1.44 7.008 0 2.528-.48 4.864-1.44 7.008a16.834 16.834 0 0 1-3.936 5.616c-1.696 1.568-3.696 2.784-6 3.648-2.304.864-4.832 1.296-7.584 1.296zm0-9.168c1.056 0 2.032-.192 2.928-.576a6.948 6.948 0 0 0 2.4-1.632c.704-.736 1.248-1.616 1.632-2.64.384-1.056.576-2.24.576-3.552 0-1.312-.192-2.48-.576-3.504-.384-1.056-.928-1.936-1.632-2.64a6.655 6.655 0 0 0-2.4-1.68c-.896-.384-1.872-.576-2.928-.576a7.706 7.706 0 0 0-2.976.576 7.253 7.253 0 0 0-2.4 1.68c-.672.704-1.2 1.584-1.584 2.64-.384 1.024-.576 2.192-.576 3.504 0 1.312.192 2.496.576 3.552.384 1.024.912 1.904 1.584 2.64a7.606 7.606 0 0 0 2.4 1.632c.928.384 1.92.576 2.976.576z" fill="#FF7D01"/></svg>