<svg width="136" height="41" fill="none" xmlns="http://www.w3.org/2000/svg"><g clip-path="url(#a)"><path d="M131.161 41H4.764C2.138 41 0 38.819 0 36.149V4.844C0 2.173 2.138 0 4.764 0h126.397C133.787 0 136 2.173 136 4.844V36.15c0 2.67-2.213 4.851-4.839 4.851z" fill="#000"/><path d="M135.025 36.15c0 2.169-1.727 3.925-3.863 3.925H4.764c-2.135 0-3.867-1.756-3.867-3.925V4.843c0-2.168 1.732-3.93 3.867-3.93h126.397c2.137 0 3.863 1.762 3.863 3.93l.001 31.307z" fill="#fff"/><path d="M30.351 20.279c-.029-3.304 2.659-4.911 2.782-4.986-1.523-2.258-3.882-2.567-4.711-2.591-1.982-.212-3.904 1.206-4.913 1.206-1.03 0-2.584-1.186-4.26-1.15-2.155.033-4.172 1.303-5.278 3.275-2.283 4.021-.58 9.93 1.607 13.18 1.094 1.592 2.372 3.37 4.045 3.307 1.637-.069 2.249-1.062 4.224-1.062 1.958 0 2.532 1.062 4.239 1.022 1.757-.028 2.863-1.599 3.918-3.205 1.265-1.824 1.772-3.621 1.793-3.713-.042-.015-3.412-1.324-3.446-5.283zM27.128 10.564c.88-1.12 1.482-2.645 1.315-4.192-1.274.058-2.868.897-3.786 1.993-.812.966-1.537 2.548-1.35 4.037 1.432.108 2.902-.735 3.82-1.838zM54.042 32.292h-2.288l-1.253-4.007h-4.356l-1.194 4.007h-2.227L47.04 18.65h2.666l4.336 13.64zm-3.919-5.688-1.133-3.562c-.12-.364-.344-1.22-.676-2.57h-.04c-.132.58-.345 1.437-.637 2.57l-1.113 3.562h3.6zM65.141 27.253c0 1.672-.444 2.995-1.333 3.965-.796.865-1.784 1.296-2.964 1.296-1.273 0-2.188-.465-2.745-1.396h-.04v5.181H55.91V25.694c0-1.052-.027-2.131-.08-3.238h1.89l.12 1.559h.04c.716-1.175 1.803-1.761 3.262-1.761 1.14 0 2.092.458 2.854 1.375.763.919 1.144 2.126 1.144 3.624zm-2.188.08c0-.958-.212-1.747-.637-2.368-.464-.648-1.088-.972-1.87-.972-.53 0-1.011.18-1.441.536a2.493 2.493 0 0 0-.845 1.408c-.067.27-.1.492-.1.666v1.64c0 .715.215 1.319.647 1.812.43.493.991.74 1.68.74.809 0 1.439-.319 1.889-.952.451-.635.677-1.471.677-2.51zM76.26 27.253c0 1.672-.445 2.995-1.334 3.965-.795.865-1.783 1.296-2.963 1.296-1.273 0-2.188-.465-2.744-1.396h-.04v5.181H67.03V25.694c0-1.052-.027-2.131-.08-3.238h1.89l.12 1.559H69c.715-1.175 1.802-1.761 3.261-1.761 1.14 0 2.092.458 2.855 1.375.76.919 1.143 2.126 1.143 3.624zm-2.188.08c0-.958-.213-1.747-.638-2.368-.465-.648-1.086-.972-1.869-.972-.53 0-1.011.18-1.442.536a2.492 2.492 0 0 0-.845 1.408c-.065.27-.1.492-.1.666v1.64c0 .715.216 1.319.645 1.812.432.492.992.74 1.683.74.809 0 1.438-.319 1.889-.952.451-.635.677-1.471.677-2.51zM88.691 28.466c0 1.16-.396 2.105-1.19 2.833-.874.797-2.09 1.194-3.653 1.194-1.442 0-2.599-.282-3.474-.85l.498-1.82c.942.58 1.977.87 3.104.87.81 0 1.439-.186 1.891-.557.45-.371.675-.87.675-1.49 0-.554-.185-1.02-.557-1.398-.37-.379-.987-.73-1.85-1.055-2.347-.89-3.52-2.196-3.52-3.912 0-1.12.412-2.04 1.235-2.756.82-.716 1.914-1.074 3.282-1.074 1.22 0 2.233.216 3.042.648l-.537 1.781c-.755-.418-1.61-.627-2.566-.627-.755 0-1.345.19-1.769.567a1.632 1.632 0 0 0-.537 1.235c0 .54.205.985.616 1.335.358.324 1.007.675 1.95 1.053 1.154.473 2.001 1.025 2.546 1.659.543.631.814 1.421.814 2.364zM95.792 24.096h-2.367v4.775c0 1.215.417 1.822 1.253 1.822.384 0 .702-.034.954-.102l.06 1.66c-.423.16-.98.242-1.67.242-.849 0-1.512-.264-1.99-.79-.477-.527-.717-1.41-.717-2.651v-4.958h-1.41v-1.64h1.41v-1.801l2.11-.648v2.449h2.367v1.642zM106.474 27.293c0 1.512-.425 2.753-1.273 3.724-.89.999-2.071 1.497-3.543 1.497-1.418 0-2.547-.479-3.39-1.436-.842-.957-1.263-2.166-1.263-3.622 0-1.524.433-2.773 1.303-3.744.867-.971 2.038-1.457 3.51-1.457 1.418 0 2.559.479 3.421 1.437.824.93 1.235 2.13 1.235 3.6zm-2.229.07c0-.907-.19-1.685-.576-2.334-.45-.785-1.094-1.176-1.928-1.176-.863 0-1.519.392-1.97 1.176-.385.65-.576 1.44-.576 2.375 0 .907.19 1.686.577 2.333.464.785 1.113 1.177 1.95 1.177.82 0 1.464-.4 1.928-1.197.396-.661.595-1.447.595-2.354zM113.455 24.378a3.659 3.659 0 0 0-.677-.06c-.755 0-1.34.29-1.751.87-.357.513-.537 1.16-.537 1.943v5.16h-2.146l.02-6.738a53.83 53.83 0 0 0-.081-3.096h1.871l.079 1.882h.059c.227-.647.584-1.168 1.074-1.558a2.566 2.566 0 0 1 1.552-.527c.199 0 .378.014.537.04v2.084zM123.061 26.908c0 .392-.025.722-.079.991h-6.443c.025.972.336 1.715.935 2.228.543.458 1.245.688 2.107.688.954 0 1.825-.155 2.607-.466l.337 1.517c-.915.406-1.995.608-3.241.608-1.499 0-2.676-.449-3.532-1.346-.854-.897-1.282-2.101-1.282-3.612 0-1.483.398-2.718 1.195-3.703.834-1.052 1.961-1.578 3.379-1.578 1.394 0 2.448.526 3.165 1.578.567.835.852 1.868.852 3.095zm-2.048-.567c.014-.647-.126-1.207-.417-1.68-.372-.607-.943-.91-1.712-.91-.702 0-1.273.296-1.709.89-.358.473-.571 1.04-.636 1.7h4.474zM49.413 10.26c0 1.206-.355 2.114-1.066 2.724-.657.562-1.592.844-2.803.844-.6 0-1.114-.026-1.544-.08V7.157c.56-.093 1.165-.14 1.818-.14 1.153 0 2.023.255 2.61.766.656.577.985 1.402.985 2.476zm-1.113.029c0-.782-.203-1.382-.61-1.8-.407-.417-1.002-.626-1.784-.626-.333 0-.616.022-.85.07v5.01c.13.021.367.03.713.03.808 0 1.431-.228 1.87-.685.44-.457.661-1.124.661-1.999zM55.316 11.313c0 .743-.209 1.352-.626 1.83-.437.49-1.016.736-1.74.736-.697 0-1.252-.235-1.666-.707-.413-.47-.62-1.064-.62-1.78 0-.747.213-1.361.64-1.838.427-.477 1.002-.715 1.725-.715.697 0 1.257.234 1.681.705.403.457.606 1.047.606 1.769zm-1.095.035c0-.446-.095-.828-.283-1.147-.222-.386-.537-.578-.947-.578-.425 0-.747.192-.968.578-.19.319-.284.707-.284 1.166 0 .446.095.828.284 1.147.228.386.547.578.958.578.402 0 .719-.195.947-.588.195-.325.293-.71.293-1.156zM63.23 8.937l-1.486 4.832h-.967l-.616-2.098a15.91 15.91 0 0 1-.381-1.561h-.02c-.091.53-.218 1.05-.381 1.56l-.654 2.099h-.978l-1.398-4.832h1.085l.537 2.297c.13.543.237 1.06.323 1.55h.019c.078-.403.208-.918.392-1.54l.674-2.306h.86l.646 2.257c.156.55.283 1.08.38 1.59h.03c.071-.496.179-1.026.322-1.59l.576-2.257h1.037v-.001zM68.703 13.769h-1.056V11c0-.852-.318-1.279-.957-1.279a.946.946 0 0 0-.762.352 1.26 1.26 0 0 0-.293.828v2.866h-1.056v-3.45c0-.425-.013-.885-.038-1.383h.927l.05.755h.029c.123-.234.306-.428.547-.583.286-.18.606-.271.957-.271.443 0 .812.145 1.105.437.365.358.547.892.547 1.601v2.895zM71.615 13.769H70.56v-7.05h1.055v7.05zM77.83 11.313c0 .743-.208 1.352-.625 1.83-.438.49-1.018.736-1.74.736-.698 0-1.253-.235-1.666-.707-.413-.47-.62-1.064-.62-1.78 0-.747.213-1.361.64-1.838.427-.477 1.001-.715 1.724-.715.698 0 1.257.234 1.682.705.403.457.605 1.047.605 1.769zm-1.096.035c0-.446-.094-.828-.283-1.147-.22-.386-.537-.578-.946-.578-.425 0-.747.192-.968.578-.19.319-.283.707-.283 1.166 0 .446.095.828.283 1.147.229.386.547.578.958.578.403 0 .718-.195.946-.588.197-.325.293-.71.293-1.156zM82.94 13.769h-.948l-.079-.557h-.029c-.324.444-.787.667-1.387.667-.448 0-.811-.147-1.084-.438a1.386 1.386 0 0 1-.372-.984c0-.59.242-1.04.728-1.352.486-.312 1.17-.465 2.049-.457v-.09c0-.637-.329-.955-.987-.955-.468 0-.881.12-1.238.358l-.214-.705c.44-.278.986-.417 1.629-.417 1.24 0 1.863.666 1.863 1.998v1.78c0 .482.023.867.069 1.152zm-1.096-1.66v-.746c-1.165-.02-1.747.305-1.747.974 0 .252.066.44.202.567a.73.73 0 0 0 .516.188c.232 0 .448-.075.646-.223a.917.917 0 0 0 .383-.76zM88.939 13.769h-.937l-.05-.776h-.028c-.3.59-.81.886-1.526.886-.572 0-1.048-.23-1.426-.686-.378-.457-.566-1.05-.566-1.78 0-.782.204-1.415.615-1.899.398-.45.886-.676 1.466-.676.638 0 1.084.218 1.338.656h.02V6.72h1.057v5.747c0 .47.012.904.037 1.302zm-1.094-2.038v-.806c0-.139-.01-.252-.03-.338a1.227 1.227 0 0 0-.381-.65 1.027 1.027 0 0 0-.706-.264c-.394 0-.703.159-.93.478-.224.318-.338.725-.338 1.222 0 .478.108.866.325 1.164.228.317.537.476.923.476.346 0 .623-.132.834-.397.203-.245.303-.54.303-.885zM97.968 11.313c0 .743-.208 1.352-.625 1.83-.438.49-1.016.736-1.74.736-.696 0-1.251-.235-1.666-.707-.413-.47-.62-1.064-.62-1.78 0-.747.213-1.361.64-1.838.427-.477 1.001-.715 1.726-.715.696 0 1.257.234 1.68.705.403.457.605 1.047.605 1.769zm-1.094.035c0-.446-.094-.828-.283-1.147-.222-.386-.537-.578-.948-.578-.423 0-.745.192-.968.578-.19.319-.283.707-.283 1.166 0 .446.095.828.283 1.147.229.386.547.578.958.578.403 0 .72-.195.948-.588.195-.325.293-.71.293-1.156zM103.645 13.769h-1.055V11c0-.852-.318-1.279-.958-1.279a.941.941 0 0 0-.761.352 1.252 1.252 0 0 0-.293.828v2.866h-1.057v-3.45c0-.425-.012-.885-.037-1.383h.926l.05.755h.029c.124-.234.307-.428.547-.583.287-.18.606-.271.958-.271.442 0 .811.145 1.104.437.366.358.547.892.547 1.601v2.895zM110.75 9.742h-1.162v2.347c0 .596.206.895.615.895.19 0 .347-.017.471-.05l.027.814c-.209.08-.483.12-.82.12-.417 0-.742-.129-.976-.387-.236-.258-.353-.693-.353-1.303V9.742h-.694v-.805h.694v-.886l1.035-.317v1.202h1.162l.001.806zM116.339 13.769h-1.056v-2.747c0-.866-.319-1.3-.956-1.3-.49 0-.824.251-1.008.754a1.381 1.381 0 0 0-.049.386v2.906h-1.055V6.72h1.055v2.912h.02c.332-.53.809-.794 1.426-.794.438 0 .799.145 1.086.437.358.364.537.905.537 1.62v2.874zM122.105 11.124c0 .193-.014.355-.039.487h-3.167c.014.478.166.842.459 1.094.268.225.613.338 1.036.338.469 0 .896-.076 1.281-.228l.165.746c-.45.199-.98.298-1.594.298-.735 0-1.314-.22-1.734-.661-.421-.44-.629-1.032-.629-1.774 0-.73.194-1.336.586-1.82.409-.516.962-.775 1.66-.775.683 0 1.202.259 1.553.775.283.41.423.918.423 1.52zm-1.008-.277a1.459 1.459 0 0 0-.204-.826c-.183-.298-.462-.448-.84-.448a.995.995 0 0 0-.84.438c-.176.233-.279.51-.314.836h2.198z" fill="#000"/></g><defs><clipPath id="a"><path fill="#fff" d="M0 0h136v41H0z"/></clipPath></defs></svg>