<svg width="198" height="59" fill="none" xmlns="http://www.w3.org/2000/svg"><g clip-path="url(#a)"><path d="M190.956 59H6.936C3.112 59 0 55.861 0 52.019V6.97C0 3.127 3.112 0 6.936 0h184.02C194.778 0 198 3.127 198 6.97V52.02c0 3.842-3.222 6.981-7.044 6.981z" fill="#000"/><path d="M196.58 52.02c0 3.121-2.514 5.65-5.623 5.65H6.936c-3.108 0-5.63-2.529-5.63-5.65V6.97c0-3.12 2.522-5.657 5.63-5.657h184.02c3.11 0 5.623 2.537 5.623 5.656l.001 45.051z" fill="#fff"/><path d="M44.188 29.181c-.043-4.754 3.87-7.066 4.05-7.174-2.217-3.25-5.652-3.693-6.859-3.729-2.885-.305-5.683 1.736-7.153 1.736-1.499 0-3.762-1.706-6.2-1.656-3.14.049-6.076 1.876-7.686 4.714-3.324 5.786-.845 14.29 2.34 18.967 1.592 2.29 3.453 4.848 5.89 4.758 2.383-.098 3.273-1.528 6.149-1.528 2.85 0 3.686 1.528 6.17 1.47 2.558-.04 4.168-2.3 5.705-4.611 1.841-2.626 2.58-5.212 2.61-5.345-.06-.02-4.968-1.904-5.016-7.602zM39.494 15.201c1.282-1.612 2.16-3.805 1.916-6.03-1.855.082-4.176 1.29-5.512 2.867-1.182 1.389-2.238 3.666-1.965 5.808 2.084.157 4.224-1.058 5.561-2.645zM78.68 46.468h-3.332l-1.824-5.765h-6.342l-1.738 5.765h-3.243l6.283-19.629h3.881l6.314 19.63zm-5.706-8.184-1.65-5.126c-.174-.524-.502-1.757-.984-3.698h-.059c-.192.835-.501 2.068-.927 3.698l-1.62 5.126h5.24zM94.838 39.217c0 2.407-.647 4.31-1.94 5.707-1.16 1.243-2.598 1.864-4.316 1.864-1.854 0-3.185-.67-3.996-2.008h-.06v7.456H81.4V36.974c0-1.514-.04-3.067-.116-4.66h2.75l.175 2.244h.058c1.043-1.69 2.626-2.534 4.75-2.534 1.66 0 3.046.659 4.154 1.98 1.112 1.32 1.667 3.058 1.667 5.213zm-3.186.115c0-1.377-.308-2.513-.927-3.407-.676-.932-1.584-1.398-2.722-1.398-.772 0-1.473.26-2.099.771-.628.516-1.038 1.19-1.23 2.025-.097.39-.146.708-.146.96v2.36c0 1.029.314 1.897.942 2.607.628.71 1.443 1.063 2.446 1.063 1.178 0 2.095-.457 2.75-1.368.657-.913.986-2.117.986-3.613zM111.025 39.217c0 2.407-.647 4.31-1.942 5.707-1.157 1.243-2.596 1.864-4.313 1.864-1.854 0-3.186-.67-3.995-2.008h-.059v7.456h-3.127V36.974c0-1.514-.04-3.067-.116-4.66h2.75l.175 2.244h.058c1.042-1.69 2.624-2.534 4.749-2.534 1.659 0 3.045.659 4.157 1.98 1.107 1.32 1.663 3.058 1.663 5.213zm-3.185.115c0-1.377-.31-2.513-.929-3.407-.676-.932-1.581-1.398-2.72-1.398-.773 0-1.473.26-2.101.771-.627.516-1.037 1.19-1.229 2.025-.095.39-.145.708-.145.96v2.36c0 1.029.314 1.897.939 2.607.627.708 1.443 1.063 2.449 1.063 1.178 0 2.094-.457 2.75-1.368.657-.913.986-2.117.986-3.613zM129.124 40.964c0 1.67-.577 3.028-1.734 4.077-1.271 1.146-3.042 1.718-5.316 1.718-2.101 0-3.784-.407-5.059-1.223l.725-2.62a8.533 8.533 0 0 0 4.52 1.253c1.178 0 2.094-.268 2.753-.802.655-.534.982-1.251.982-2.145 0-.797-.269-1.468-.811-2.012-.538-.544-1.437-1.05-2.692-1.518-3.418-1.282-5.125-3.16-5.125-5.628 0-1.614.598-2.937 1.797-3.967 1.194-1.03 2.786-1.546 4.778-1.546 1.776 0 3.252.312 4.429.933l-.781 2.563c-1.1-.602-2.344-.902-3.736-.902-1.1 0-1.959.272-2.575.815-.521.485-.782 1.077-.782 1.778 0 .776.298 1.417.896 1.922.521.466 1.467.97 2.84 1.514 1.679.68 2.912 1.475 3.706 2.387.79.908 1.185 2.046 1.185 3.403zM139.462 34.674h-3.446v6.872c0 1.748.607 2.621 1.824 2.621.559 0 1.023-.048 1.389-.146l.087 2.388c-.616.232-1.427.349-2.432.349-1.235 0-2.2-.38-2.897-1.136-.693-.758-1.042-2.03-1.042-3.816V34.67h-2.054v-2.36h2.054V29.72l3.071-.932v3.523h3.446v2.363zM155.013 39.275c0 2.175-.618 3.962-1.853 5.358-1.295 1.439-3.014 2.155-5.157 2.155-2.065 0-3.709-.688-4.936-2.066-1.226-1.378-1.839-3.117-1.839-5.213 0-2.193.631-3.99 1.897-5.386 1.262-1.399 2.967-2.098 5.11-2.098 2.065 0 3.726.689 4.98 2.068 1.2 1.338 1.798 3.065 1.798 5.182zm-3.244.102c0-1.306-.277-2.425-.839-3.359-.655-1.13-1.593-1.693-2.807-1.693-1.257 0-2.212.565-2.867 1.693-.562.935-.839 2.072-.839 3.417 0 1.306.277 2.425.839 3.358.676 1.13 1.62 1.693 2.839 1.693 1.194 0 2.131-.575 2.807-1.723.577-.951.867-2.083.867-3.386zM165.177 35.08a5.393 5.393 0 0 0-.985-.087c-1.1 0-1.951.417-2.549 1.254-.521.737-.782 1.67-.782 2.795v7.426h-3.125l.029-9.696c0-1.632-.04-3.117-.117-4.456h2.723l.115 2.708h.086c.33-.93.851-1.68 1.564-2.242.696-.506 1.449-.758 2.26-.758.289 0 .55.02.781.057v2.999zM179.162 38.722a7.48 7.48 0 0 1-.114 1.426h-9.381c.037 1.398.49 2.468 1.361 3.205.791.66 1.813.99 3.068.99 1.389 0 2.656-.223 3.796-.67l.49 2.183c-1.332.584-2.904.875-4.718.875-2.183 0-3.896-.646-5.143-1.937-1.243-1.29-1.867-3.023-1.867-5.197 0-2.135.58-3.912 1.74-5.33 1.214-1.513 2.855-2.27 4.921-2.27 2.028 0 3.564.757 4.606 2.27.826 1.202 1.241 2.69 1.241 4.455zm-2.982-.816c.021-.932-.183-1.737-.607-2.417-.541-.875-1.373-1.312-2.492-1.312-1.022 0-1.854.427-2.489 1.282-.52.68-.83 1.496-.925 2.446l6.513.001zM71.94 14.763c0 1.736-.518 3.043-1.552 3.92-.958.81-2.319 1.216-4.082 1.216-.874 0-1.622-.038-2.248-.115V10.3c.817-.133 1.697-.201 2.647-.201 1.68 0 2.945.367 3.8 1.102.955.83 1.435 2.018 1.435 3.563zm-1.62.043c0-1.125-.297-1.988-.89-2.59-.592-.6-1.457-.901-2.597-.901-.484 0-.896.032-1.238.1v7.211c.19.03.535.043 1.039.043 1.176 0 2.084-.329 2.723-.987.64-.657.962-1.616.962-2.876zM80.533 16.28c0 1.069-.303 1.945-.91 2.633-.637.706-1.48 1.059-2.534 1.059-1.014 0-1.823-.338-2.425-1.017-.602-.677-.902-1.53-.902-2.56 0-1.077.31-1.96.93-2.646.623-.686 1.459-1.03 2.512-1.03 1.015 0 1.83.338 2.448 1.015.586.658.881 1.507.881 2.546zm-1.594.05c0-.642-.138-1.192-.412-1.65-.323-.555-.782-.833-1.379-.833-.617 0-1.087.278-1.41.832-.275.459-.412 1.018-.412 1.679 0 .641.138 1.192.413 1.65.333.555.796.832 1.394.832.587 0 1.048-.282 1.38-.846.284-.468.426-1.023.426-1.664zM92.055 12.86l-2.163 6.954h-1.408l-.896-3.02a22.73 22.73 0 0 1-.556-2.246h-.028a16.528 16.528 0 0 1-.556 2.246l-.952 3.02h-1.424l-2.034-6.953h1.58l.781 3.305c.19.782.345 1.527.47 2.232h.028c.114-.581.303-1.322.57-2.217l.981-3.319h1.253l.94 3.248c.227.792.412 1.555.554 2.29h.043a21.99 21.99 0 0 1 .47-2.29l.838-3.248h1.51v-.001zM100.024 19.814h-1.537V15.83c0-1.227-.464-1.84-1.394-1.84-.456 0-.824.168-1.11.505a1.801 1.801 0 0 0-.427 1.192v4.124H94.02v-4.965c0-.61-.019-1.272-.056-1.99h1.351l.072 1.088h.043c.179-.338.445-.617.796-.84.417-.26.883-.39 1.393-.39.646 0 1.183.209 1.61.63.53.514.796 1.283.796 2.303v4.166zM104.262 19.814h-1.535V9.67h1.535v10.144zM113.312 16.28c0 1.069-.304 1.945-.911 2.633-.637.706-1.481 1.059-2.533 1.059-1.016 0-1.825-.338-2.426-1.017-.601-.677-.902-1.53-.902-2.56 0-1.077.31-1.96.931-2.646.622-.686 1.458-1.03 2.51-1.03 1.016 0 1.83.338 2.449 1.015.587.658.882 1.507.882 2.546zm-1.596.05c0-.642-.138-1.192-.412-1.65-.321-.555-.782-.833-1.377-.833-.619 0-1.089.278-1.41.832-.276.459-.412 1.018-.412 1.679 0 .641.138 1.192.412 1.65.333.555.797.832 1.395.832.587 0 1.046-.282 1.377-.846.286-.468.427-1.023.427-1.664zM120.751 19.814h-1.38l-.115-.801h-.042c-.473.638-1.146.959-2.02.959-.653 0-1.181-.211-1.578-.63-.361-.38-.541-.854-.541-1.416 0-.85.352-1.497 1.06-1.946.707-.448 1.701-.668 2.982-.658v-.13c0-.915-.478-1.373-1.436-1.373-.682 0-1.283.173-1.803.515l-.312-1.015c.642-.4 1.436-.6 2.372-.6 1.807 0 2.713.959 2.713 2.876v2.56c0 .696.034 1.249.1 1.659zm-1.596-2.39v-1.072c-1.696-.03-2.543.438-2.543 1.401 0 .363.097.634.295.816.198.181.45.271.75.271.338 0 .653-.107.941-.321a1.317 1.317 0 0 0 .557-1.095zM129.485 19.814h-1.364l-.072-1.117h-.043c-.435.85-1.177 1.275-2.22 1.275-.833 0-1.527-.33-2.077-.987-.55-.658-.824-1.512-.824-2.56 0-1.126.297-2.038.896-2.734.579-.649 1.289-.974 2.134-.974.928 0 1.578.315 1.948.944h.029v-3.99h1.538v8.27c0 .677.018 1.3.055 1.873zm-1.593-2.933v-1.159c0-.2-.015-.363-.043-.487a1.753 1.753 0 0 0-.556-.936 1.505 1.505 0 0 0-1.028-.38c-.573 0-1.022.23-1.352.688-.327.459-.493 1.044-.493 1.76 0 .687.157 1.245.473 1.674.332.457.781.686 1.343.686.505 0 .908-.19 1.214-.573.297-.352.442-.777.442-1.273zM142.63 16.28c0 1.069-.303 1.945-.91 2.633-.637.706-1.479 1.059-2.533 1.059-1.014 0-1.822-.338-2.426-1.017-.602-.677-.902-1.53-.902-2.56 0-1.077.309-1.96.931-2.646.622-.686 1.458-1.03 2.513-1.03 1.013 0 1.83.338 2.446 1.015.587.658.881 1.507.881 2.546zm-1.592.05c0-.642-.138-1.192-.413-1.65-.324-.555-.781-.833-1.38-.833-.616 0-1.085.278-1.409.832-.276.459-.412 1.018-.412 1.679 0 .641.138 1.192.412 1.65.333.555.796.832 1.395.832.586 0 1.048-.282 1.38-.846.283-.468.427-1.023.427-1.664zM150.895 19.814h-1.536V15.83c0-1.227-.463-1.84-1.394-1.84-.456 0-.825.168-1.109.505a1.792 1.792 0 0 0-.427 1.192v4.124h-1.538v-4.965c0-.61-.018-1.272-.055-1.99h1.35l.071 1.088h.043c.18-.338.447-.617.796-.84.418-.26.883-.39 1.395-.39.644 0 1.181.209 1.608.63.532.514.796 1.283.796 2.303v4.166zM161.239 14.018h-1.692v3.378c0 .859.301 1.288.896 1.288.276 0 .505-.024.685-.072l.04 1.172c-.304.115-.703.173-1.194.173-.607 0-1.08-.186-1.421-.558-.344-.372-.514-.997-.514-1.875v-3.506h-1.01v-1.157h1.01v-1.275l1.506-.457v1.73h1.693l.001 1.16zM169.377 19.814h-1.539V15.86c0-1.247-.463-1.87-1.392-1.87-.713 0-1.2.36-1.467 1.084a1.971 1.971 0 0 0-.071.556v4.181h-1.536V9.67h1.536v4.19h.029c.484-.762 1.178-1.143 2.077-1.143.636 0 1.163.21 1.581.63.52.524.782 1.303.782 2.332v4.135zM177.77 16.008c0 .278-.02.51-.057.701h-4.61c.021.687.241 1.21.668 1.574.39.324.893.486 1.509.486.682 0 1.304-.109 1.864-.328l.241 1.073c-.656.287-1.428.43-2.321.43-1.07 0-1.914-.317-2.524-.952-.613-.634-.917-1.485-.917-2.553 0-1.049.284-1.922.854-2.618.596-.743 1.401-1.115 2.417-1.115.995 0 1.75.372 2.26 1.115.412.59.616 1.32.616 2.187zm-1.466-.4c.011-.458-.09-.853-.298-1.187-.267-.429-.673-.644-1.223-.644-.502 0-.911.21-1.224.63a2.35 2.35 0 0 0-.456 1.202h3.201z" fill="#000"/></g><defs><clipPath id="a"><path fill="#fff" d="M0 0h198v59H0z"/></clipPath></defs></svg>