<svg aria-hidden="true" style="position: absolute; width: 0; height: 0; overflow: hidden;" version="1.1" xmlns="http://www.w3.org/2000/svg" xmlns:xlink="http://www.w3.org/1999/xlink">
<defs>
<symbol id="icon-heart" viewBox="0 0 32 32">
<path d="M28.832 8.848c-0.416-0.96-1.024-1.84-1.776-2.576-0.752-0.752-1.648-1.328-2.624-1.744-1.008-0.416-2.096-0.64-3.2-0.624-1.536 0-3.040 0.416-4.352 1.216-0.304 0.192-0.608 0.4-0.88 0.624-1.418-1.146-3.242-1.84-5.229-1.84-0.007 0-0.014 0-0.020 0h0.001c-1.104 0-2.192 0.208-3.2 0.624-0.976 0.416-1.872 0.992-2.624 1.744-0.752 0.736-1.36 1.616-1.776 2.576-0.432 1.008-0.656 2.080-0.656 3.184 0 1.040 0.208 2.128 0.624 3.232 0.352 0.928 0.864 1.888 1.52 2.848 1.024 1.52 2.432 3.12 4.176 4.736 2.896 2.672 5.776 4.528 5.888 4.608l0.752 0.464c0.32 0.208 0.752 0.208 1.072 0l0.736-0.464c0.128-0.080 2.992-1.936 5.904-4.608 1.744-1.616 3.152-3.216 4.176-4.736 0.656-0.96 1.168-1.92 1.504-2.848 0.432-1.104 0.64-2.192 0.64-3.232 0-1.104-0.224-2.176-0.656-3.184zM16 25.456s-11.136-7.136-11.136-13.424c0-3.184 2.64-5.76 5.888-5.76 2.288 0 4.272 1.28 5.248 3.136 0.96-1.856 2.944-3.136 5.232-3.136 3.248 0 5.888 2.576 5.888 5.76 0 6.288-11.12 13.424-11.12 13.424z"></path>
<path d="M21.232 6.272c-2.288 0-4.272 1.28-5.232 3.136-1.017-1.88-2.974-3.136-5.225-3.136-0.008 0-0.016 0-0.025 0h0.001c-3.248 0-5.888 2.576-5.888 5.76 0 6.288 11.136 13.424 11.136 13.424s11.12-7.136 11.12-13.424c0-3.184-2.64-5.76-5.888-5.76z"></path>
</symbol>
<symbol id="icon-youtube" viewBox="0 0 32 32">
<path d="M16.1 3.98h0.18c1.64 0.020 9.96 0.080 12.22 0.68 1.378 0.39 2.44 1.458 2.813 2.812l0.007 0.028c0.2 0.76 0.34 1.76 0.44 2.8l0.020 0.22 0.040 0.52 0.020 0.2c0.14 1.82 0.14 3.54 0.14 3.92v0.14c0 0.4-0.020 2.22-0.16 4.12l-0.020 0.22v0.2c-0.1 1.14-0.26 2.28-0.48 3.12-0.38 1.382-1.442 2.45-2.792 2.833l-0.028 0.007c-2.32 0.62-11.14 0.66-12.36 0.66h-0.3c-0.62 0-3.16 0-5.84-0.1l-0.34-0.020h-0.18l-0.34-0.020h-0.34c-2.22-0.1-4.34-0.26-5.32-0.52-0.68-0.18-1.3-0.54-1.78-1.040-0.5-0.5-0.86-1.12-1.040-1.8-0.22-0.84-0.38-1.98-0.48-3.12v-0.2l-0.020-0.22c-0.1-1.36-0.16-2.72-0.16-4.080v-0.24c0-0.42 0.020-1.92 0.12-3.56l0.020-0.2v-0.1l0.020-0.2 0.040-0.52 0.020-0.22c0.1-1.040 0.24-2.040 0.44-2.8 0.18-0.68 0.54-1.3 1.040-1.8 0.48-0.5 1.1-0.86 1.78-1.040 0.98-0.26 3.1-0.42 5.32-0.52l0.34-0.020h0.34l0.18-0.020h0.34c1.9-0.060 3.8-0.1 5.7-0.1l0.4-0.020zM12.8 10.4v9.64l8.3-4.82-8.3-4.82z"></path>
</symbol>
<symbol id="icon-phone" viewBox="0 0 24 32">
<path d="M19.635 18.487l-2.451-0.28c-0.067-0.008-0.145-0.013-0.223-0.013-0.531 0-1.012 0.215-1.36 0.564l-1.775 1.775c-2.752-1.42-4.94-3.607-6.322-6.278l-0.038-0.081 1.787-1.785c0.347-0.347 0.562-0.827 0.562-1.358 0-0.079-0.005-0.156-0.014-0.233l0.001 0.009-0.28-2.432c-0.115-0.966-0.93-1.708-1.918-1.708-0.001 0-0.002 0-0.002 0h-1.669c-1.091 0-1.997 0.907-1.929 1.997 0.511 8.24 7.101 14.821 15.332 15.333 1.091 0.067 1.997-0.84 1.997-1.931v-1.669c0-0.003 0-0.007 0-0.011 0-0.981-0.739-1.789-1.69-1.899l-0.009-0.001z"></path>
</symbol>
<symbol id="icon-linkedin" viewBox="0 0 32 32">
<path d="M6.624 3.313c0 0.886-0.338 1.73-0.971 2.342-0.612 0.633-1.456 0.971-2.342 0.971s-1.73-0.338-2.342-0.971c-0.633-0.612-0.992-1.456-0.971-2.342 0-0.886 0.338-1.73 0.971-2.342 0.612-0.633 1.456-0.992 2.342-0.971 0.886 0 1.73 0.338 2.342 0.971 0.633 0.612 0.971 1.456 0.971 2.342zM6.73 9.094h-6.646v20.783h6.646v-20.783zM17.216 9.094h-6.604v20.783h6.541v-10.909c0-6.077 7.934-6.646 7.934 0v10.909h6.562v-13.166c0-10.233-11.732-9.854-14.496-4.832l0.063-2.785z"></path>
</symbol>
<symbol id="icon-scales" viewBox="0 0 32 32">
<path d="M6.992 10.992l4 10c0 2.208-2.496 3.008-4 3.008s-4-0.8-4-3.008l4-10zM24.992 6.992l-4 10c0 2.208 2.496 3.008 4 3.008s4-0.8 4-3.008l-4-10z"></path>
<path d="M29.92 16.624l-4-10c-0.084-0.227-0.249-0.407-0.459-0.51l-0.005-0.002c-0.138-0.074-0.302-0.118-0.476-0.118-0.075 0-0.148 0.008-0.219 0.024l0.007-0.001-7.776 1.728v-2.752c0-0.272-0.112-0.512-0.288-0.704-0.179-0.178-0.426-0.288-0.699-0.288-0.002 0-0.004 0-0.005 0h0c-0.272 0-0.528 0.096-0.72 0.288-0.176 0.192-0.288 0.432-0.288 0.704v3.2l-8.224 1.824c-0.144 0.032-0.304 0.112-0.416 0.208-0.128 0.112-0.224 0.24-0.288 0.4l-4 10c-0.042 0.089-0.067 0.193-0.067 0.303 0 0.023 0.001 0.045 0.003 0.068l-0-0.003c0 2.912 3.056 4 4.992 4s5.008-1.088 5.008-4c0-0.128-0.032-0.256-0.080-0.368l-3.568-8.912 6.64-1.472v15.76h-2c-0.272 0-0.512 0.096-0.704 0.288s-0.288 0.432-0.288 0.704c0 0.272 0.096 0.512 0.288 0.704s0.432 0.304 0.704 0.304h6c0.272 0 0.512-0.112 0.704-0.304s0.304-0.432 0.304-0.704c0-0.272-0.112-0.512-0.304-0.704-0.175-0.178-0.419-0.288-0.688-0.288-0.006 0-0.011 0-0.016 0h-1.999v-16.208l6.368-1.408-3.296 8.24c-0.042 0.089-0.067 0.193-0.067 0.303 0 0.023 0.001 0.045 0.003 0.068l-0-0.003c0 2.912 3.056 4 4.992 4s5.008-1.088 5.008-4c0-0.128-0.032-0.256-0.080-0.368zM6.992 22.992c-0.944 0-2.848-0.448-2.992-1.824l2.992-7.488 2.992 7.488c-0.144 1.376-2.048 1.824-2.992 1.824zM24.992 18.992c-0.944 0-2.848-0.448-2.992-1.824l2.992-7.488 2.992 7.488c-0.144 1.376-2.048 1.824-2.992 1.824z"></path>
</symbol>
<symbol id="icon-search" viewBox="0 0 32 32">
<path d="M19.93 22.052l5.51 5.508c0.137 0.147 0.303 0.266 0.487 0.348s0.383 0.126 0.584 0.13c0.201 0.003 0.401-0.033 0.588-0.109s0.356-0.188 0.499-0.33c0.143-0.142 0.255-0.312 0.33-0.499s0.113-0.387 0.109-0.588c-0.003-0.201-0.048-0.4-0.13-0.584s-0.2-0.35-0.348-0.487l-5.51-5.508c1.496-2.031 2.169-4.551 1.885-7.057s-1.504-4.812-3.417-6.456c-1.912-1.644-4.375-2.505-6.896-2.41s-4.912 1.139-6.695 2.922-2.827 4.175-2.922 6.695c-0.095 2.52 0.766 4.983 2.41 6.896s3.95 3.133 6.456 3.417c2.506 0.284 5.027-0.389 7.057-1.885zM21 14c0 1.857-0.738 3.637-2.050 4.95s-3.093 2.050-4.95 2.050c-1.857 0-3.637-0.737-4.95-2.050s-2.050-3.093-2.050-4.95c0-1.857 0.737-3.637 2.050-4.95s3.093-2.050 4.95-2.050c1.857 0 3.637 0.737 4.95 2.050s2.050 3.093 2.050 4.95z"></path>
</symbol>
<symbol id="icon-user" viewBox="0 0 33 32">
<path d="M32.449 28.923c-2.343-4.051-5.954-6.955-10.168-8.332 2.084-1.241 3.704-3.132 4.61-5.382s1.048-4.736 0.404-7.075c-0.643-2.339-2.037-4.402-3.966-5.872s-4.288-2.267-6.714-2.267-4.784 0.796-6.714 2.267c-1.929 1.47-3.323 3.533-3.966 5.872s-0.501 4.824 0.404 7.075c0.906 2.25 2.525 4.141 4.61 5.382-4.214 1.375-7.825 4.28-10.168 8.332-0.086 0.14-0.143 0.296-0.168 0.458s-0.017 0.328 0.024 0.488c0.040 0.159 0.112 0.309 0.212 0.44s0.224 0.241 0.366 0.323 0.3 0.135 0.463 0.155c0.163 0.020 0.329 0.008 0.487-0.037s0.306-0.12 0.434-0.223c0.128-0.103 0.235-0.23 0.313-0.374 2.898-5.009 8.022-8 13.703-8s10.805 2.991 13.703 8c0.078 0.144 0.185 0.272 0.313 0.374s0.276 0.178 0.434 0.223c0.158 0.045 0.324 0.057 0.487 0.037s0.32-0.073 0.463-0.155 0.267-0.192 0.366-0.323c0.099-0.131 0.171-0.281 0.211-0.44s0.048-0.325 0.024-0.488c-0.025-0.162-0.082-0.318-0.168-0.458zM8 11.077c0-1.704 0.505-3.37 1.452-4.786s2.292-2.521 3.867-3.173c1.574-0.652 3.306-0.823 4.978-0.49s3.206 1.153 4.411 2.358c1.205 1.205 2.025 2.74 2.358 4.411s0.162 3.404-0.49 4.978c-0.652 1.574-1.756 2.92-3.173 3.866s-3.083 1.452-4.786 1.452c-2.284-0.002-4.474-0.911-6.089-2.526s-2.524-3.805-2.526-6.089z"></path>
</symbol>
<symbol id="icon-facebook" viewBox="0 0 32 32">
<path d="M18.133 17.6h2.667l1.067-4.267h-3.733v-2.147c0-1.093 0-2.12 2.133-2.12h1.6v-3.587c-0.36-0.053-1.667-0.147-3.053-0.147-2.893 0-4.947 1.76-4.947 5.013v2.987h-3.2v4.267h3.2v9.067h4.267v-9.067z"></path>
</symbol>
<symbol id="icon-instagram" viewBox="0 0 32 32">
<path d="M16.36 5.333c0.72-0.013 1.453 0 2.187 0.013l0.187 0.013c0.227 0 0.453 0.013 0.72 0.027 1.067 0.053 1.787 0.213 2.427 0.467 1.351 0.52 2.4 1.569 2.908 2.886l0.012 0.034c0.253 0.64 0.413 1.373 0.467 2.427 0.013 0.267 0.027 0.493 0.027 0.72l0.013 0.187c0.013 0.733 0.027 1.467 0.013 2.187l0.013 0.747v1.32c0 0.72-0.013 1.453-0.027 2.187l-0.013 0.187c0 0.227-0.013 0.453-0.027 0.72-0.053 1.067-0.213 1.787-0.467 2.427-0.52 1.351-1.569 2.4-2.886 2.908l-0.034 0.012c-0.64 0.253-1.36 0.413-2.427 0.467-0.267 0.013-0.493 0.027-0.72 0.027l-0.187 0.013c-0.733 0.013-1.467 0.027-2.187 0.013l-0.747 0.013h-1.307c-0.733 0-1.467-0.013-2.2-0.027l-0.187-0.013c-0.24 0-0.48-0.013-0.72-0.027-1.053-0.053-1.787-0.213-2.427-0.467-1.351-0.52-2.4-1.569-2.908-2.886l-0.012-0.034c-0.253-0.64-0.413-1.36-0.467-2.427-0.013-0.24-0.027-0.48-0.027-0.72l-0.013-0.187c-0.013-0.733-0.027-1.467-0.013-2.187v-2.067c-0.013-0.72 0-1.453 0.013-2.187l0.013-0.187c0-0.227 0.013-0.453 0.027-0.72 0.053-1.067 0.213-1.787 0.467-2.427 0.253-0.667 0.64-1.267 1.16-1.76 0.493-0.52 1.093-0.907 1.76-1.16 0.64-0.253 1.373-0.413 2.427-0.467l0.72-0.027 0.187-0.013c0.733-0.013 1.467-0.027 2.187-0.013h2.067zM15.333 10.333c-0.667-0.013-1.32 0.107-1.947 0.36-0.613 0.24-1.173 0.613-1.64 1.080-0.467 0.453-0.853 1.013-1.107 1.627s-0.387 1.267-0.387 1.933c0 0.653 0.133 1.307 0.387 1.92s0.64 1.173 1.107 1.64c0.467 0.453 1.027 0.827 1.64 1.080 0.627 0.24 1.28 0.36 1.947 0.36 1.32 0 2.587-0.533 3.533-1.467 0.933-0.947 1.467-2.213 1.467-3.533 0-1.333-0.533-2.6-1.467-3.547-0.947-0.933-2.213-1.453-3.533-1.453zM15.333 12.333c0.387-0.013 0.787 0.053 1.16 0.213 0.373 0.147 0.707 0.36 0.987 0.64 0.293 0.28 0.52 0.613 0.667 0.973 0.151 0.344 0.239 0.745 0.239 1.167s-0.088 0.823-0.247 1.186l0.007-0.019c-0.147 0.36-0.373 0.693-0.667 0.973-0.28 0.28-0.613 0.507-0.987 0.653s-0.76 0.213-1.16 0.213c-0.8 0-1.56-0.32-2.12-0.88-0.573-0.573-0.88-1.333-0.88-2.12-0-0.005-0-0.010-0-0.016 0-1.648 1.336-2.984 2.984-2.984 0.006 0 0.011 0 0.017 0h-0.001zM20.573 8.827c-0.337 0.013-0.637 0.159-0.853 0.386l-0.001 0.001c-0.213 0.227-0.347 0.547-0.347 0.867s0.133 0.627 0.347 0.867c0.227 0.227 0.533 0.36 0.853 0.373 0.333 0 0.653-0.12 0.893-0.36 0.227-0.24 0.36-0.547 0.36-0.88s-0.133-0.653-0.36-0.893c-0.232-0.221-0.547-0.358-0.893-0.36h-0z"></path>
</symbol>
<symbol id="icon-twitter" viewBox="0 0 32 32">
<path d="M29.6 7.54c-1.020 0.44-2.080 0.74-3.2 0.86 1.16-0.68 2.040-1.78 2.46-3.080-1.1 0.66-2.3 1.1-3.54 1.36-1.018-1.095-2.467-1.778-4.076-1.778-0.961 0-1.865 0.244-2.653 0.673l0.029-0.015c-1.1 0.58-1.96 1.5-2.46 2.62s-0.62 2.38-0.34 3.58c-2.22-0.1-4.4-0.68-6.38-1.68-2.023-1.050-3.725-2.44-5.098-4.112l-0.022-0.028c-0.5 0.84-0.76 1.82-0.76 2.8 0 1.94 1 3.64 2.48 4.64-0.88-0.020-1.74-0.26-2.52-0.7v0.080c0 1.28 0.44 2.52 1.26 3.52s1.96 1.68 3.22 1.94c-0.82 0.22-1.7 0.26-2.52 0.1 0.34 1.1 1.040 2.080 1.98 2.76 0.94 0.7 2.060 1.080 3.22 1.1-1.16 0.92-2.48 1.6-3.9 1.98-1.42 0.4-2.9 0.52-4.36 0.34 2.56 1.64 5.52 2.5 8.56 2.5 10.26 0 15.86-8.5 15.86-15.86 0-0.24 0-0.48-0.020-0.72 1.1-0.8 2.040-1.76 2.78-2.88z"></path>
</symbol>
<symbol id="icon-star" viewBox="0 0 32 32">
<path stroke-linejoin="miter" stroke-linecap="butt" stroke-miterlimit="4" stroke-width="2.4615" d="M27.681 13.196c-0.026 0.093-0.074 0.179-0.139 0.25l-5.823 5.082 1.725 7.484c0.028 0.118 0.020 0.241-0.023 0.354s-0.117 0.212-0.215 0.283c-0.098 0.071-0.215 0.112-0.335 0.117s-0.24-0.025-0.343-0.087c-0-0-0.001-0-0.001-0.001l-6.533-3.963-6.519 3.963c-0.001 0-0.001 0.001-0.002 0.001-0.103 0.062-0.222 0.092-0.343 0.087s-0.238-0.046-0.335-0.117-0.173-0.17-0.215-0.283c-0.042-0.113-0.050-0.237-0.023-0.354l0.001-0.003 1.722-7.473-5.766-5.039c-0.092-0.079-0.158-0.184-0.191-0.3s-0.030-0.24 0.007-0.356c0.037-0.115 0.108-0.217 0.203-0.292s0.21-0.121 0.331-0.131l7.605-0.659 2.967-7.076c0.046-0.111 0.124-0.206 0.225-0.273s0.218-0.102 0.338-0.102c0.12 0 0.238 0.036 0.338 0.102v0c0.1 0.067 0.178 0.162 0.225 0.273l0.001 0.003 2.974 7.073 7.602 0.659c0.121 0.010 0.236 0.056 0.331 0.131s0.166 0.177 0.203 0.292v0c0.037 0.115 0.040 0.239 0.007 0.356v0z"></path>
</symbol>
<symbol id="icon-star-fill" viewBox="0 0 32 32">
<path d="M28.288 14.428l-5.204 4.542 1.559 6.761c0.083 0.353 0.059 0.723-0.068 1.064s-0.351 0.636-0.644 0.849c-0.294 0.214-0.643 0.336-1.006 0.352s-0.722-0.076-1.033-0.263l-5.897-3.577-5.885 3.577c-0.311 0.187-0.67 0.279-1.033 0.263s-0.713-0.138-1.006-0.352c-0.294-0.213-0.518-0.509-0.644-0.849s-0.15-0.71-0.068-1.064l1.557-6.755-5.205-4.548c-0.275-0.237-0.474-0.551-0.572-0.901s-0.090-0.721 0.022-1.067c0.112-0.346 0.324-0.651 0.609-0.877s0.63-0.363 0.992-0.393l6.861-0.594 2.678-6.388c0.14-0.335 0.376-0.621 0.678-0.823s0.657-0.309 1.020-0.309c0.363 0 0.718 0.107 1.020 0.309s0.538 0.488 0.678 0.823l2.686 6.388 6.858 0.594c0.362 0.030 0.707 0.167 0.992 0.393s0.497 0.531 0.609 0.877 0.12 0.717 0.022 1.067c-0.098 0.35-0.297 0.664-0.572 0.901h-0.006z"></path>
</symbol>
<symbol id="icon-arrow-right" viewBox="0 0 32 32">
<path d="M19.414 27.414l10-10c0.781-0.781 0.781-2.047 0-2.828l-10-10c-0.781-0.781-2.047-0.781-2.828 0s-0.781 2.047 0 2.828l6.586 6.586h-19.172c-1.105 0-2 0.895-2 2s0.895 2 2 2h19.172l-6.586 6.586c-0.39 0.39-0.586 0.902-0.586 1.414s0.195 1.024 0.586 1.414c0.781 0.781 2.047 0.781 2.828 0z"></path>
</symbol>
<symbol id="icon-arrow-left" viewBox="0 0 32 32">
<path d="M12.586 27.414l-10-10c-0.781-0.781-0.781-2.047 0-2.828l10-10c0.781-0.781 2.047-0.781 2.828 0s0.781 2.047 0 2.828l-6.586 6.586h19.172c1.105 0 2 0.895 2 2s-0.895 2-2 2h-19.172l6.586 6.586c0.39 0.39 0.586 0.902 0.586 1.414s-0.195 1.024-0.586 1.414c-0.781 0.781-2.047 0.781-2.828 0z"></path>
</symbol>
<symbol id="icon-cart" viewBox="0 0 32 32">
<path d="M13.36 2.66c-0.62 0-1.21 0.25-1.65 0.69-0.44 0.43-0.68 1.030-0.68 1.65 0 0.61 0.24 1.21 0.68 1.64 0.44 0.44 1.030 0.69 1.65 0.69h5.33c0.62 0 1.21-0.25 1.65-0.69 0.44-0.43 0.69-1.030 0.69-1.64 0-0.62-0.25-1.22-0.69-1.65-0.44-0.44-1.030-0.69-1.65-0.69h-5.33zM5.18 21.6c-1.15-4.57-1.72-6.86-0.52-8.4s3.56-1.54 8.28-1.54h6.17c4.72 0 7.080 0 8.28 1.54s0.63 3.83-0.52 8.4c-0.72 2.91-1.090 4.37-2.17 5.21-1.090 0.85-2.59 0.85-5.59 0.85h-6.17c-3 0-4.5 0-5.59-0.85-1.080-0.84-1.45-2.3-2.17-5.21z"></path>
<path d="M20.8 6c0.15-0.31 0.23-0.66 0.23-1 0-0.35-0.080-0.69-0.23-1 0.91 0 1.62 0.040 2.26 0.29 0.76 0.3 1.41 0.8 1.9 1.46 0.49 0.65 0.72 1.5 1.040 2.66l0.060 0.23 0.68 3.95c-0.54-0.38-1.25-0.6-2.16-0.73l-0.48-2.79c-0.38-1.38-0.51-1.82-0.75-2.13-0.26-0.35-0.61-0.63-1.020-0.78-0.29-0.12-0.65-0.15-1.53-0.16zM11.25 4c-0.15 0.31-0.23 0.65-0.23 1 0.010 0.34 0.080 0.69 0.23 1-0.88 0.010-1.23 0.040-1.53 0.16-0.41 0.15-0.76 0.43-1.020 0.78-0.23 0.31-0.37 0.75-0.75 2.13l-0.48 2.79c-0.91 0.13-1.61 0.35-2.16 0.73l0.69-3.95 0.060-0.23c0.31-1.16 0.54-2.010 1.030-2.67 0.49-0.65 1.15-1.15 1.91-1.45 0.63-0.24 1.34-0.29 2.25-0.29v0z"></path>
</symbol>
<symbol id="icon-Arrow" viewBox="0 0 19 32">
<path d="M9.264 28.628l6.872-6.9c0.556-0.529 1.419-0.529 1.975 0 0.556 0.556 0.556 1.419 0 1.975l-7.873 7.873c-0.556 0.556-1.419 0.556-1.975 0l-7.873-7.873c-0.529-0.556-0.529-1.419 0-1.975 0.556-0.529 1.419-0.529 1.975 0l6.9 6.9z"></path>
<path d="M10.656 27.237l5.481-5.509c0.556-0.529 1.419-0.529 1.975 0 0.556 0.556 0.556 1.419 0 1.975l-7.873 7.873c-0.556 0.556-1.419 0.556-1.975 0l-7.873-7.873c-0.529-0.556-0.529-1.419 0-1.975 0.556-0.529 1.419-0.529 1.975 0l5.509 5.509v-27.237h2.782v27.237z"></path>
</symbol>
<symbol id="icon-menu" viewBox="0 0 32 32">
<path d="M5.33 24h21.33c0.74 0 1.34-0.61 1.34-1.34s-0.6-1.33-1.34-1.33h-21.33c-0.74 0-1.33 0.6-1.33 1.33s0.59 1.34 1.33 1.34zM5.33 17.33h21.33c0.74 0 1.34-0.6 1.34-1.33 0-0.74-0.6-1.34-1.34-1.34h-21.33c-0.74 0-1.33 0.6-1.33 1.34 0 0.73 0.59 1.33 1.33 1.33zM4 9.33c0 0.73 0.59 1.33 1.33 1.33h21.33c0.74 0 1.34-0.6 1.34-1.33s-0.6-1.33-1.34-1.33h-21.33c-0.74 0-1.33 0.6-1.33 1.33z"></path>
<path d="M4 9.33c0 0.73 0.59 1.33 1.33 1.33h21.33c0.74 0 1.34-0.6 1.34-1.33s-0.6-1.33-1.34-1.33h-21.33c-0.74 0-1.33 0.6-1.33 1.33zM26.66 10.46h-21.33q-0.12 0-0.24-0.020-0.1-0.030-0.2-0.070-0.090-0.040-0.17-0.090-0.1-0.060-0.19-0.15t-0.15-0.19q-0.060-0.080-0.1-0.17-0.040-0.1-0.060-0.21-0.030-0.11-0.030-0.23t0.030-0.24q0.020-0.1 0.060-0.2 0.040-0.090 0.1-0.17 0.060-0.1 0.15-0.19t0.19-0.15q0.080-0.060 0.17-0.1 0.1-0.040 0.2-0.060 0.12-0.020 0.24-0.020h21.33q0.12 0 0.24 0.020 0.1 0.020 0.2 0.060 0.090 0.040 0.17 0.1 0.1 0.060 0.19 0.15t0.15 0.19q0.060 0.080 0.1 0.17 0.040 0.1 0.060 0.2 0.030 0.12 0.030 0.24t-0.030 0.23q-0.020 0.11-0.060 0.21-0.040 0.090-0.1 0.17-0.060 0.1-0.15 0.19t-0.19 0.15q-0.080 0.050-0.17 0.090-0.1 0.040-0.2 0.070-0.12 0.020-0.24 0.020zM5.33 17.33h21.33c0.74 0 1.34-0.6 1.34-1.33 0-0.74-0.6-1.34-1.34-1.34h-21.33c-0.74 0-1.33 0.6-1.33 1.34 0 0.73 0.59 1.33 1.33 1.33zM26.9 17.1q-0.12 0.030-0.24 0.030h-21.33q-0.12 0-0.24-0.030-0.1-0.020-0.2-0.060-0.090-0.040-0.17-0.090-0.1-0.070-0.19-0.15-0.090-0.090-0.15-0.19-0.060-0.080-0.1-0.18-0.040-0.090-0.060-0.2-0.030-0.11-0.030-0.23 0-0.13 0.030-0.24 0.020-0.11 0.060-0.2 0.040-0.1 0.1-0.18 0.060-0.1 0.15-0.19 0.090-0.080 0.19-0.15 0.080-0.050 0.17-0.090 0.1-0.040 0.2-0.060 0.12-0.030 0.24-0.030h21.33q0.12 0 0.24 0.030 0.1 0.020 0.2 0.060 0.090 0.040 0.17 0.090 0.1 0.070 0.19 0.15 0.090 0.090 0.15 0.19 0.060 0.080 0.1 0.18 0.040 0.090 0.060 0.2 0.030 0.11 0.030 0.24 0 0.12-0.030 0.23-0.020 0.11-0.060 0.2-0.040 0.1-0.1 0.18-0.060 0.1-0.15 0.19-0.090 0.080-0.19 0.15-0.080 0.050-0.17 0.090-0.1 0.040-0.2 0.060zM5.33 24h21.33c0.74 0 1.34-0.61 1.34-1.34s-0.6-1.33-1.34-1.33h-21.33c-0.74 0-1.33 0.6-1.33 1.33s0.59 1.34 1.33 1.34zM26.9 23.77q-0.12 0.020-0.24 0.020h-21.33q-0.12 0-0.24-0.020-0.1-0.020-0.2-0.060-0.090-0.040-0.17-0.1-0.1-0.060-0.19-0.15t-0.15-0.19q-0.060-0.080-0.1-0.17-0.040-0.1-0.060-0.2-0.030-0.12-0.030-0.24t0.030-0.23q0.020-0.11 0.060-0.21 0.040-0.090 0.1-0.17 0.060-0.1 0.15-0.19t0.19-0.15q0.080-0.050 0.17-0.090 0.1-0.040 0.2-0.070 0.12-0.020 0.24-0.020h21.33q0.12 0 0.24 0.020 0.1 0.030 0.2 0.070 0.090 0.040 0.17 0.090 0.1 0.060 0.19 0.15t0.15 0.19q0.060 0.080 0.1 0.17 0.040 0.1 0.060 0.21 0.030 0.11 0.030 0.23t-0.030 0.24q-0.020 0.1-0.060 0.2-0.040 0.090-0.1 0.17-0.060 0.1-0.15 0.19t-0.19 0.15q-0.080 0.060-0.17 0.1-0.1 0.040-0.2 0.060z"></path>
</symbol>
</defs>
</svg>
