<svg width="136" height="41" fill="none" xmlns="http://www.w3.org/2000/svg"><g clip-path="url(#a)"><path d="M130.96 40.731H5.04c-2.77 0-5.037-2.291-5.037-5.091V5.092c0-2.8 2.266-5.091 5.037-5.091h125.92c2.771 0 5.037 2.29 5.037 5.091V35.64c0 2.8-2.266 5.091-5.037 5.091z" fill="#fff"/><path d="M130.96 0H5.04C2.27 0 .003 2.293.003 5.093V35.64c0 2.8 2.266 5.091 5.037 5.091h125.92c2.771 0 5.037-2.291 5.037-5.091V5.092c0-2.8-2.266-5.091-5.037-5.091zm0 .815c2.334 0 4.232 1.919 4.232 4.277V35.64c0 2.358-1.898 4.277-4.232 4.277H5.04c-2.333 0-4.231-1.919-4.231-4.277V5.092c0-2.358 1.898-4.277 4.23-4.277H130.96z" fill="#000"/><path d="M107.727 30.548h1.88v-12.73h-1.88v12.73zm16.931-8.144-2.154 5.52h-.065l-2.236-5.52h-2.025l3.355 7.714-1.913 4.29h1.96l5.169-12.003h-2.091zm-10.661 6.698c-.614 0-1.473-.311-1.473-1.08 0-.983 1.07-1.36 1.992-1.36.826 0 1.216.18 1.718.426-.146 1.18-1.151 2.014-2.237 2.014zm.228-6.976c-1.361 0-2.77.606-3.354 1.949l1.669.704c.356-.704 1.02-.933 1.717-.933.972 0 1.961.589 1.977 1.637v.131c-.341-.196-1.07-.491-1.961-.491-1.799 0-3.629.999-3.629 2.866 0 1.703 1.475 2.8 3.127 2.8 1.263 0 1.961-.573 2.397-1.245h.066v.984h1.815v-4.881c0-2.26-1.67-3.521-3.824-3.521zm-11.617 1.828h-2.674V19.59h2.674c1.405 0 2.203 1.175 2.203 2.181 0 .987-.798 2.182-2.203 2.182zm-.049-6.136h-4.504v12.73h1.88v-4.822h2.624c2.084 0 4.132-1.524 4.132-3.953s-2.048-3.955-4.132-3.955zm-24.56 11.287c-1.3 0-2.386-1.1-2.386-2.608 0-1.527 1.087-2.642 2.386-2.642 1.282 0 2.288 1.115 2.288 2.642 0 1.508-1.006 2.608-2.288 2.608zm2.158-5.988h-.065c-.422-.509-1.234-.968-2.256-.968-2.142 0-4.106 1.903-4.106 4.348 0 2.427 1.964 4.314 4.106 4.314 1.022 0 1.834-.46 2.256-.985h.065v.623c0 1.658-.876 2.543-2.288 2.543-1.152 0-1.866-.836-2.159-1.542l-1.639.69c.47 1.147 1.72 2.559 3.798 2.559 2.207 0 4.074-1.313 4.074-4.512V22.41h-1.786v.706zm3.084 7.431h1.882v-12.73h-1.882v12.73zm4.657-4.2c-.048-1.673 1.283-2.526 2.24-2.526.747 0 1.38.378 1.591.919l-3.83 1.608zm5.843-1.443c-.357-.968-1.444-2.756-3.668-2.756-2.207 0-4.041 1.755-4.041 4.33 0 2.429 1.818 4.332 4.252 4.332 1.963 0 3.1-1.214 3.57-1.92l-1.46-.984c-.487.722-1.152 1.198-2.11 1.198-.957 0-1.64-.443-2.077-1.313l5.729-2.395-.195-.492zm-45.642-1.427v1.837h4.349c-.13 1.034-.47 1.788-.99 2.313-.633.64-1.623 1.345-3.36 1.345-2.678 0-4.77-2.181-4.77-4.888s2.092-4.889 4.77-4.889c1.445 0 2.5.574 3.279 1.313l1.282-1.297c-1.088-1.05-2.532-1.853-4.56-1.853-3.669 0-6.752 3.018-6.752 6.726 0 3.707 3.083 6.726 6.751 6.726 1.98 0 3.474-.657 4.642-1.887 1.2-1.214 1.574-2.92 1.574-4.298 0-.426-.032-.82-.097-1.148h-6.118zm11.16 5.627c-1.298 0-2.418-1.083-2.418-2.625 0-1.559 1.12-2.625 2.419-2.625 1.298 0 2.418 1.066 2.418 2.625 0 1.542-1.12 2.625-2.418 2.625zm0-6.956c-2.37 0-4.3 1.82-4.3 4.33 0 2.494 1.93 4.332 4.3 4.332s4.301-1.838 4.301-4.331c0-2.51-1.931-4.33-4.3-4.33zm9.382 6.956c-1.297 0-2.418-1.083-2.418-2.625 0-1.559 1.12-2.625 2.418-2.625 1.299 0 2.418 1.066 2.418 2.625 0 1.542-1.119 2.625-2.418 2.625zm0-6.956c-2.369 0-4.3 1.82-4.3 4.33 0 2.494 1.931 4.332 4.3 4.332 2.37 0 4.301-1.838 4.301-4.331 0-2.51-1.93-4.33-4.3-4.33z" fill="#000"/><path d="M20.87 19.78 10.146 31.284l.001.007a2.901 2.901 0 0 0 2.798 2.17c.536 0 1.038-.147 1.47-.404l.034-.02 12.072-7.041-5.651-6.218z" fill="#EB3131"/><path d="m31.72 17.82-.01-.007-5.212-3.054-5.872 5.282 5.893 5.955 5.184-3.024a2.934 2.934 0 0 0 1.526-2.581 2.93 2.93 0 0 0-1.508-2.57z" fill="#F6B60B"/><path d="M10.144 9.447c-.064.24-.098.492-.098.754v20.332c0 .26.033.513.099.753l11.094-11.212L10.144 9.447z" fill="#5778C5"/><path d="m20.95 20.367 5.55-5.61L14.443 7.69a2.88 2.88 0 0 0-1.497-.418c-1.34 0-2.47.921-2.8 2.172v.003l10.805 10.92z" fill="#3BAD49"/><path d="M47.746 9.96h-2.939v.735h2.202c-.06.6-.296 1.071-.694 1.413-.398.342-.907.514-1.508.514-.66 0-1.218-.232-1.676-.694-.449-.47-.677-1.053-.677-1.754 0-.702.228-1.284.677-1.755a2.272 2.272 0 0 1 1.676-.692c.339 0 .661.058.957.187.296.13.534.309.72.54l.558-.565a2.515 2.515 0 0 0-.973-.676 3.291 3.291 0 0 0-1.262-.24c-.88 0-1.626.308-2.235.924-.61.617-.915 1.378-.915 2.277 0 .899.306 1.66.915 2.277.61.615 1.355.924 2.235.924.924 0 1.66-.3 2.227-.907.5-.506.754-1.19.754-2.046 0-.145-.017-.3-.042-.462zm1.138-2.85v6.128h3.54v-.753h-2.76v-1.944h2.49v-.735h-2.49V7.863h2.76V7.11h-3.54zm8.504.753V7.11h-4.166v.754h1.693v5.375h.78V7.863h1.693zm3.772-.754h-.779v6.129h.78V7.109zm5.143.754V7.11h-4.166v.754h1.693v5.375h.78V7.863h1.693zm7.862.043c-.601-.625-1.338-.934-2.218-.934-.881 0-1.618.31-2.219.925-.601.608-.897 1.37-.897 2.277 0 .906.296 1.669.897 2.276.601.616 1.338.925 2.22.925.871 0 1.616-.309 2.217-.925.602-.607.897-1.37.897-2.276 0-.9-.295-1.66-.897-2.268zm-3.878.513c.448-.462 1-.692 1.66-.692.66 0 1.21.23 1.652.692.448.453.668 1.045.668 1.755s-.22 1.301-.668 1.755c-.441.46-.992.693-1.651.693a2.222 2.222 0 0 1-1.661-.694c-.44-.463-.66-1.043-.66-1.754 0-.71.22-1.292.66-1.755zm6.627 1.002L76.88 8.24h.033l3.082 4.999h.813V7.109h-.779v3.586l.033 1.182h-.033L77.084 7.11h-.95v6.129h.78V9.42z" fill="#000" stroke="#000" stroke-width=".267" stroke-miterlimit="10"/></g><defs><clipPath id="a"><path fill="#fff" d="M0 0h136v40.731H0z"/></clipPath></defs></svg>