<svg width="197" height="59" fill="none" xmlns="http://www.w3.org/2000/svg"><g clip-path="url(#a)"><path d="M189.7 59H7.3C3.287 59 .004 55.681.004 51.625V7.376C.004 3.32 3.287.001 7.3.001h182.4c4.013 0 7.296 3.319 7.296 7.375v44.25c0 4.055-3.283 7.374-7.296 7.374z" fill="#fff"/><path d="M189.7.001H7.3C3.287.001.004 3.32.004 7.376v44.25C.004 55.68 3.287 59 7.3 59h182.4c4.013 0 7.296-3.319 7.296-7.375V7.376c0-4.056-3.283-7.375-7.296-7.375zm0 1.18c3.38 0 6.129 2.78 6.129 6.195v44.25c0 3.415-2.749 6.195-6.129 6.195H7.3c-3.38 0-6.128-2.78-6.128-6.196V7.376c0-3.416 2.748-6.195 6.128-6.195h182.4z" fill="#000"/><path d="M156.046 44.25h2.723V25.81h-2.723v18.44zm24.525-11.797-3.121 7.994h-.093l-3.24-7.994h-2.933l4.859 11.173-2.771 6.216h2.84l7.487-17.388-3.028-.001zm-15.442 9.703c-.89 0-2.135-.452-2.135-1.566 0-1.424 1.55-1.97 2.886-1.97 1.197 0 1.762.261 2.488.617-.211 1.709-1.666 2.919-3.239 2.919zm.329-10.106c-1.971 0-4.012.878-4.857 2.823l2.416 1.02c.517-1.02 1.478-1.352 2.488-1.352 1.408 0 2.84.853 2.863 2.372v.19c-.493-.285-1.55-.712-2.839-.712-2.607 0-5.258 1.447-5.258 4.151 0 2.468 2.136 4.057 4.529 4.057 1.83 0 2.841-.83 3.473-1.803h.095v1.424h2.63v-7.07c0-3.274-2.42-5.1-5.54-5.1zm-16.828 2.648h-3.873v-6.32h3.873c2.036 0 3.192 1.703 3.192 3.16 0 1.429-1.156 3.16-3.192 3.16zm-.07-8.888h-6.524v18.44h2.722v-6.985h3.802c3.018 0 5.985-2.208 5.985-5.727 0-3.518-2.967-5.728-5.985-5.728zM112.983 42.16c-1.881 0-3.455-1.593-3.455-3.778 0-2.21 1.574-3.826 3.455-3.826 1.857 0 3.315 1.615 3.315 3.826 0 2.185-1.458 3.778-3.315 3.778zm3.127-8.674h-.094c-.611-.736-1.787-1.402-3.268-1.402-3.103 0-5.948 2.757-5.948 6.298 0 3.516 2.845 6.249 5.948 6.249 1.481 0 2.656-.666 3.268-1.426h.094v.903c0 2.4-1.27 3.683-3.315 3.683-1.668 0-2.703-1.212-3.126-2.233l-2.374.998c.681 1.662 2.49 3.707 5.5 3.707 3.198 0 5.901-1.902 5.901-6.536V32.464h-2.586v1.021zm4.467 10.765h2.726V25.81h-2.726v18.44zm6.747-6.084c-.071-2.423 1.858-3.659 3.244-3.659 1.082 0 1.998.547 2.305 1.33l-5.549 2.33zm8.462-2.091c-.517-1.401-2.091-3.992-5.312-3.992-3.198 0-5.854 2.543-5.854 6.274 0 3.517 2.633 6.273 6.159 6.273 2.844 0 4.491-1.758 5.173-2.78l-2.116-1.426c-.706 1.046-1.669 1.735-3.057 1.735-1.386 0-2.374-.642-3.008-1.901l8.298-3.47-.283-.713zm-66.114-2.067v2.662h6.3c-.188 1.497-.681 2.59-1.434 3.35-.917.926-2.351 1.949-4.866 1.949-3.879 0-6.911-3.16-6.911-7.081 0-3.921 3.032-7.082 6.911-7.082 2.092 0 3.62.832 4.749 1.901l1.857-1.877c-1.575-1.52-3.667-2.685-6.606-2.685-5.314 0-9.78 4.372-9.78 9.743 0 5.37 4.466 9.742 9.78 9.742 2.868 0 5.03-.95 6.723-2.733 1.74-1.758 2.28-4.23 2.28-6.226 0-.617-.047-1.187-.14-1.663h-8.863zm16.167 8.15c-1.88 0-3.503-1.568-3.503-3.801 0-2.258 1.622-3.802 3.503-3.802 1.88 0 3.503 1.544 3.503 3.802 0 2.233-1.622 3.802-3.503 3.802zm0-10.075c-3.433 0-6.23 2.638-6.23 6.274 0 3.612 2.797 6.273 6.23 6.273 3.432 0 6.23-2.661 6.23-6.273 0-3.636-2.798-6.274-6.23-6.274zM99.43 42.16c-1.88 0-3.503-1.569-3.503-3.802 0-2.258 1.623-3.802 3.503-3.802 1.881 0 3.503 1.544 3.503 3.802 0 2.233-1.622 3.802-3.503 3.802zm0-10.076c-3.432 0-6.229 2.638-6.229 6.274 0 3.612 2.797 6.273 6.229 6.273 3.433 0 6.23-2.661 6.23-6.273 0-3.636-2.797-6.274-6.23-6.274z" fill="#000"/><path d="M30.23 28.65 14.697 45.319l.002.01c.477 1.81 2.112 3.142 4.053 3.142.776 0 1.505-.212 2.13-.584l.049-.03 17.487-10.2-8.186-9.005z" fill="#EB3131"/><path d="m45.948 25.813-.015-.01-7.55-4.424-8.505 7.65 8.535 8.627 7.51-4.38a4.25 4.25 0 0 0 2.21-3.74 4.245 4.245 0 0 0-2.185-3.723z" fill="#F6B60B"/><path d="M14.694 13.684a4.199 4.199 0 0 0-.143 1.092v29.451c0 .379.049.744.144 1.091l16.07-16.24-16.071-15.394z" fill="#5778C5"/><path d="m30.346 29.502 8.041-8.126L20.92 11.14a4.172 4.172 0 0 0-2.17-.606c-1.94 0-3.578 1.335-4.054 3.147v.005l15.65 15.817z" fill="#3BAD49"/><path d="M69.161 14.428h-4.257v1.065h3.19c-.086.868-.428 1.55-1.005 2.046-.577.496-1.314.745-2.185.745-.955 0-1.764-.337-2.428-1.005-.65-.682-.98-1.526-.98-2.542 0-1.017.33-1.86.98-2.542.664-.668 1.473-1.003 2.428-1.003.49 0 .958.086 1.387.272.428.187.773.447 1.042.782l.81-.819c-.368-.421-.833-.744-1.41-.98a4.767 4.767 0 0 0-1.829-.347c-1.274 0-2.355.447-3.237 1.339-.883.894-1.325 1.996-1.325 3.298s.442 2.406 1.325 3.298c.882.892 1.963 1.339 3.237 1.339 1.339 0 2.406-.433 3.227-1.314.722-.733 1.092-1.724 1.092-2.963 0-.21-.025-.434-.062-.67zm1.65-4.13v8.877h5.127v-1.09h-4V15.27h3.608v-1.065h-3.607V11.39h3.999v-1.092H70.81zm12.317 1.092v-1.092h-6.035v1.092h2.453v7.785h1.129V11.39h2.453zm5.464-1.092h-1.128v8.877h1.128v-8.877zm7.45 1.092v-1.092h-6.035v1.092h2.453v7.785h1.128V11.39h2.454zm11.389.063c-.871-.906-1.938-1.353-3.213-1.353-1.277 0-2.344.447-3.215 1.339-.871.88-1.3 1.984-1.3 3.298 0 1.313.429 2.417 1.3 3.298.871.892 1.938 1.339 3.215 1.339 1.263 0 2.341-.447 3.213-1.34.871-.88 1.299-1.984 1.299-3.297 0-1.302-.428-2.404-1.299-3.284zm-5.618.742c.649-.669 1.447-1.003 2.405-1.003.955 0 1.753.334 2.392 1.003.65.657.969 1.514.969 2.542 0 1.03-.319 1.885-.969 2.542-.639.668-1.437 1.005-2.392 1.005-.958 0-1.756-.337-2.405-1.005-.637-.67-.956-1.512-.956-2.542 0-1.028.319-1.872.956-2.542zm9.598 1.452-.047-1.713h.047l4.465 7.242h1.179v-8.878h-1.129v5.194l.048 1.713h-.048l-4.268-6.907h-1.375v8.877h1.128v-5.528z" fill="#000" stroke="#000" stroke-width=".267" stroke-miterlimit="10"/></g><defs><clipPath id="a"><path fill="#fff" d="M0 0h197v59H0z"/></clipPath></defs></svg>